<svg width="20" height="20" viewBox="0 0 20 20" fill="none" xmlns="http://www.w3.org/2000/svg">
<path d="M9.99102 1.6665C5.39102 1.6665 1.66602 5.39984 1.66602 9.99984C1.66602 14.5998 5.39102 18.3332 9.99102 18.3332C14.5993 18.3332 18.3327 14.5998 18.3327 9.99984C18.3327 5.39984 14.5993 1.6665 9.99102 1.6665ZM9.99935 16.6665C6.31602 16.6665 3.33268 13.6832 3.33268 9.99984C3.33268 6.3165 6.31602 3.33317 9.99935 3.33317C13.6827 3.33317 16.666 6.3165 16.666 9.99984C16.666 13.6832 13.6827 16.6665 9.99935 16.6665Z" fill="#67D585"/>
<path d="M10.3204 5.38477H9.1665V10.3848L13.205 13.0098L13.7819 11.9848L10.3204 9.75977V5.38477Z" fill="#67D585"/>
</svg>
