<svg width="32" height="32" viewBox="0 0 32 32" fill="none" xmlns="http://www.w3.org/2000/svg">
<path d="M10.7998 17.5C11.6282 17.5 12.2998 16.8284 12.2998 16C12.2998 15.1716 11.6282 14.5 10.7998 14.5C9.97138 14.5 9.2998 15.1716 9.2998 16C9.2998 16.8284 9.97138 17.5 10.7998 17.5Z" fill="white"/>
<path d="M21.2998 17.5C22.1282 17.5 22.7998 16.8284 22.7998 16C22.7998 15.1716 22.1282 14.5 21.2998 14.5C20.4714 14.5 19.7998 15.1716 19.7998 16C19.7998 16.8284 20.4714 17.5 21.2998 17.5Z" fill="white"/>
<path d="M16 29C23.1797 29 29 23.1797 29 16C29 8.8203 23.1797 3 16 3C8.8203 3 3 8.8203 3 16C3 23.1797 8.8203 29 16 29Z" stroke="white" stroke-width="2" stroke-miterlimit="10" stroke-linecap="round"/>
<path d="M10 22C11.4 23.4 13.4 24.3 15.7 24.3C18 24.3 19.9 23.4 21.4 22" stroke="white" stroke-width="2" stroke-miterlimit="10" stroke-linecap="round"/>
</svg>
