<svg width="46" height="37" viewBox="0 0 46 37" fill="none" xmlns="http://www.w3.org/2000/svg">
<path fill-rule="evenodd" clip-rule="evenodd" d="M1.93725e-07 20.8786C8.09668 22.1561 12.2518 25.7543 14.423 28.8359C15.5311 30.4086 16.1596 31.9014 16.5087 32.9864C16.6828 33.5277 16.7858 33.9625 16.8436 34.2479C16.8725 34.3904 16.8899 34.4948 16.8993 34.5559C16.904 34.5864 16.9066 34.6061 16.9077 34.614L17.1703 37L22.0033 36.4761L21.7506 34.1801L21.7394 34.0781L21.739 34.0749L21.7386 34.0714L21.7377 34.0635L21.7355 34.0441L21.7287 33.9909C21.7233 33.9492 21.7157 33.8949 21.7056 33.8289C21.6853 33.697 21.6547 33.5177 21.61 33.297C21.5207 32.8562 21.3745 32.2474 21.1402 31.519C20.6723 30.0647 19.847 28.1144 18.4074 26.0713C17.1643 24.3069 15.489 22.5112 13.251 20.9157L45.1317 20.9157L45.1317 16.0911L13.242 16.0911C15.4845 14.4949 17.1626 12.6972 18.4074 10.9305C19.8471 8.88724 20.6724 6.93629 21.1402 5.48151C21.3745 4.75293 21.5208 4.14392 21.6101 3.70289C21.6548 3.48216 21.6853 3.30282 21.7056 3.17082C21.7157 3.10479 21.7233 3.05054 21.7288 3.00879L21.7355 2.9556L21.7378 2.93619L21.7387 2.92831L21.7391 2.92483L21.7394 2.92166L21.7626 2.71096L22.0032 0.523579L17.1701 2.03188e-07L16.9076 2.38622C16.9066 2.39418 16.9039 2.41376 16.8993 2.44428C16.8899 2.50536 16.8724 2.60993 16.8436 2.7525C16.7857 3.03805 16.6828 3.47315 16.5086 4.01467C16.1595 5.10009 15.531 6.59328 14.423 8.16583C12.2521 11.2469 8.09781 14.8431 0.00201302 16.1135L1.93725e-07 20.8786Z" fill="white"/>
<filter id="filter0_b" x="-8" y="-8" width="61.1317" height="53" filterUnits="userSpaceOnUse" color-interpolation-filters="sRGB">
<feFlood flood-opacity="0" result="BackgroundImageFix"/>
<feGaussianBlur in="BackgroundImage" stdDeviation="4"/>
<feComposite in2="SourceAlpha" operator="in" result="effect1_backgroundBlur"/>
<feBlend mode="normal" in="SourceGraphic" in2="effect1_backgroundBlur" result="shape"/>
</filter>
</svg>
