<svg width="32" height="32" viewBox="0 0 32 32" fill="none" xmlns="http://www.w3.org/2000/svg">
<path d="M14.0289 2.71745C15.0012 1.37706 16.9988 1.37706 17.9711 2.71745C18.647 3.64927 19.883 3.98048 20.9343 3.51144C22.4465 2.83675 24.1765 3.83558 24.3483 5.4825C24.4677 6.62743 25.3726 7.53231 26.5175 7.65173C28.1644 7.82351 29.1633 9.55355 28.4886 11.0657C28.0195 12.117 28.3507 13.353 29.2826 14.0289C30.6229 15.0012 30.6229 16.9988 29.2826 17.9711C28.3507 18.647 28.0195 19.883 28.4886 20.9343C29.1633 22.4465 28.1644 24.1765 26.5175 24.3483C25.3726 24.4677 24.4677 25.3726 24.3483 26.5175C24.1765 28.1644 22.4465 29.1633 20.9343 28.4886C19.883 28.0195 18.647 28.3507 17.9711 29.2826C16.9988 30.6229 15.0012 30.6229 14.0289 29.2826C13.353 28.3507 12.117 28.0195 11.0657 28.4886C9.55355 29.1633 7.82351 28.1644 7.65173 26.5175C7.53231 25.3726 6.62743 24.4677 5.4825 24.3483C3.83558 24.1765 2.83675 22.4465 3.51144 20.9343C3.98048 19.883 3.64927 18.647 2.71745 17.9711C1.37706 16.9988 1.37706 15.0012 2.71745 14.0289C3.64927 13.353 3.98048 12.117 3.51144 11.0657C2.83675 9.55355 3.83558 7.82351 5.4825 7.65173C6.62743 7.53231 7.53231 6.62743 7.65173 5.4825C7.82351 3.83558 9.55355 2.83675 11.0657 3.51144C12.117 3.98048 13.353 3.64927 14.0289 2.71745Z" fill="black" fill-opacity="0.05"/>
<path d="M14.4337 3.01102C15.2063 1.94587 16.7937 1.94587 17.5663 3.01102L17.9711 2.71745L17.5663 3.01102C18.381 4.13418 19.8709 4.5334 21.138 3.96805C22.3397 3.4319 23.7145 4.22563 23.851 5.53438C23.9949 6.9144 25.0856 8.00509 26.4656 8.14903C27.7744 8.28554 28.5681 9.66033 28.0319 10.862C27.4666 12.1291 27.8658 13.619 28.989 14.4337C30.0541 15.2063 30.0541 16.7937 28.989 17.5663C27.8658 18.381 27.4666 19.8709 28.0319 21.138C28.5681 22.3397 27.7744 23.7145 26.4656 23.851C25.0856 23.9949 23.9949 25.0856 23.851 26.4656C23.7145 27.7744 22.3397 28.5681 21.138 28.0319C19.8709 27.4666 18.381 27.8658 17.5663 28.989C16.7937 30.0541 15.2063 30.0541 14.4337 28.989C13.619 27.8658 12.1291 27.4666 10.862 28.0319C9.66033 28.5681 8.28554 27.7744 8.14903 26.4656C8.00509 25.0856 6.9144 23.9949 5.53438 23.851C4.22563 23.7145 3.4319 22.3397 3.96805 21.138C4.5334 19.8709 4.13418 18.381 3.01102 17.5663L2.71745 17.9711L3.01102 17.5663C1.94587 16.7937 1.94587 15.2063 3.01102 14.4337C4.13418 13.619 4.5334 12.1291 3.96805 10.862C3.4319 9.66033 4.22563 8.28554 5.53438 8.14903C6.9144 8.00509 8.00509 6.9144 8.14903 5.53438C8.28554 4.22563 9.66033 3.4319 10.862 3.96805C12.1291 4.5334 13.619 4.13418 14.4337 3.01102Z" stroke="black"/>
<path d="M15.4908 21.3144L15.49 21.3138C13.9779 19.9426 12.7634 18.84 11.9209 17.81C11.0841 16.787 10.6667 15.8966 10.6667 14.9583C10.6667 13.4378 11.8545 12.25 13.375 12.25C14.2386 12.25 15.0753 12.6545 15.6193 13.2933L16 13.7404L16.3807 13.2933C16.9247 12.6545 17.7614 12.25 18.625 12.25C20.1455 12.25 21.3333 13.4378 21.3333 14.9583C21.3333 15.8966 20.9159 16.787 20.079 17.8109C19.2365 18.8416 18.0222 19.9454 16.5102 21.3194C16.51 21.3196 16.5098 21.3198 16.5096 21.32L16.0013 21.7792L15.4908 21.3144Z" stroke="black"/>
<filter id="filter0_b" x="-2.28784" y="-2.28784" width="36.5757" height="36.5757" filterUnits="userSpaceOnUse" color-interpolation-filters="sRGB">
<feFlood flood-opacity="0" result="BackgroundImageFix"/>
<feGaussianBlur in="BackgroundImage" stdDeviation="2"/>
<feComposite in2="SourceAlpha" operator="in" result="effect1_backgroundBlur"/>
<feBlend mode="normal" in="SourceGraphic" in2="effect1_backgroundBlur" result="shape"/>
</filter>
</svg>
