<svg width="20" height="20" viewBox="0 0 20 20" fill="none" xmlns="http://www.w3.org/2000/svg">
<path d="M9.9908 1.66667C5.3908 1.66667 1.6658 5.40001 1.6658 10C1.6658 14.6 5.3908 18.3333 9.9908 18.3333C14.5991 18.3333 18.3325 14.6 18.3325 10C18.3325 5.40001 14.5991 1.66667 9.9908 1.66667ZM9.99914 16.6667C6.3158 16.6667 3.33247 13.6833 3.33247 10C3.33247 6.31667 6.3158 3.33334 9.99914 3.33334C13.6825 3.33334 16.6658 6.31667 16.6658 10C16.6658 13.6833 13.6825 16.6667 9.99914 16.6667Z" fill="white"/>
<path d="M10.3205 5.38463H9.16666V10.3846L13.2051 13.0096L13.782 11.9846L10.3205 9.75963V5.38463Z" fill="white"/>
</svg>
